<svg width="128" height="128" viewBox="0 0 128 128" fill="none" xmlns="http://www.w3.org/2000/svg">
<circle cx="64" cy="64" r="64" fill="#00FFF0"/>
<path d="M63.5077 1.96923C31.8425 4.80492 28.4554 38.2031 34.1662 49.8215C35.1114 48.0098 37.9733 47.7538 39.3846 47.8523C38.7938 44.6031 39.68 33.28 46.08 31.0154C54.8036 27.9286 61.2759 26.0923 63.4092 24.9108L63.5077 13.5877V1.96923Z" fill="black"/>
<path d="M62.1292 68.7262C63.3108 68.7262 63.8687 69.3826 64 69.7108V75.9138C59.7662 76.2092 56.6154 72.1723 56.8123 71.8769C57.0092 71.5815 60.6523 68.7262 62.1292 68.7262Z" fill="black"/>
<path d="M64 124.652V87.1385C57.733 87.1385 53.219 83.308 51.0389 81.4581L51.0031 81.4277C50.2154 100.234 32.0328 100.431 23.3354 98.7569C38.4 122.289 56.2215 124.652 64 124.652Z" fill="black"/>
<circle cx="37.4154" cy="65.7723" r="1.96923" fill="black"/>
<circle cx="43.4215" cy="104.271" r="2.65846" fill="white"/>
<circle cx="47.36" cy="107.422" r="2.65846" fill="white"/>
<circle cx="52.0861" cy="109.588" r="2.65846" fill="white"/>
<circle cx="57.0092" cy="110.769" r="2.65846" fill="white"/>
<circle cx="39.8769" cy="100.726" r="2.65846" fill="white"/>
<path d="M64 119.631V105.354C62.1292 105.354 58.2923 106.732 58.3877 112.837C58.4665 117.878 62.2277 119.631 64 119.631Z" fill="white"/>
<path d="M64 116.972V107.52C62.8185 107.52 60.8492 108.505 60.8492 112.345C60.8492 115.418 62.8185 116.972 64 116.972Z" fill="#F73BD8"/>
<circle cx="37.5139" cy="71.1877" r="3.05231" fill="#F73BD8"/>
<path d="M64.4923 1.96923C96.1575 4.80492 99.5446 38.2031 93.8338 49.8215C92.8886 48.0098 90.0267 47.7538 88.6154 47.8523C89.2062 44.6031 88.32 33.28 81.92 31.0154C73.1964 27.9286 66.7241 26.0923 64.5908 24.9108L64.4923 13.5877V1.96923Z" fill="black"/>
<path d="M65.8708 68.7262C64.6892 68.7262 64.1313 69.3826 64 69.7108V75.9138C68.2338 76.2092 71.3846 72.1723 71.1877 71.8769C70.9908 71.5815 67.3477 68.7262 65.8708 68.7262Z" fill="black"/>
<path d="M64 124.652V87.1385C70.267 87.1385 74.781 83.308 76.9611 81.4581L76.9969 81.4277C77.7846 100.234 95.9672 100.431 104.665 98.7569C89.6 122.289 71.7785 124.652 64 124.652Z" fill="black"/>
<circle cx="1.96923" cy="1.96923" r="1.96923" transform="matrix(-1 0 0 1 92.5538 63.8031)" fill="black"/>
<circle cx="2.65846" cy="2.65846" r="2.65846" transform="matrix(-1 0 0 1 87.2369 101.612)" fill="white"/>
<circle cx="2.65846" cy="2.65846" r="2.65846" transform="matrix(-1 0 0 1 83.2985 104.763)" fill="white"/>
<circle cx="2.65846" cy="2.65846" r="2.65846" transform="matrix(-1 0 0 1 78.5723 106.929)" fill="white"/>
<circle cx="2.65846" cy="2.65846" r="2.65846" transform="matrix(-1 0 0 1 73.6492 108.111)" fill="white"/>
<circle cx="2.65846" cy="2.65846" r="2.65846" transform="matrix(-1 0 0 1 90.7816 98.0677)" fill="white"/>
<path d="M64 119.631V105.354C65.8708 105.354 69.7077 106.732 69.6123 112.837C69.5335 117.878 65.7723 119.631 64 119.631Z" fill="white"/>
<path d="M64 116.972V107.52C65.1815 107.52 67.1508 108.505 67.1508 112.345C67.1508 115.418 65.1815 116.972 64 116.972Z" fill="#F73BD8"/>
<circle cx="3.05231" cy="3.05231" r="3.05231" transform="matrix(-1 0 0 1 93.5385 68.1354)" fill="#F73BD8"/>
</svg>
