<svg id="visual" viewBox="0 0 900 600" width="900" height="600" xmlns="http://www.w3.org/2000/svg"
  xmlns:xlink="http://www.w3.org/1999/xlink" version="1.1">
  <g transform="translate(468.0988735391336 306.4812475668533)">
    <path
      d="M155.9 -203.3C187.1 -159.6 187.1 -96.3 195.8 -36.1C204.4 24 221.7 81 204.7 125.5C187.7 170 136.4 202 79.5 226C22.6 250 -40 265.9 -81.3 242.6C-122.5 219.2 -142.5 156.5 -173.8 101C-205.1 45.4 -247.8 -2.9 -248.1 -51.1C-248.3 -99.3 -206.1 -147.3 -157.7 -187.9C-109.3 -228.6 -54.6 -261.8 3.9 -266.4C62.4 -271 124.7 -246.9 155.9 -203.3"
      fill="#95adb9"></path>
  </g>
</svg>